Coordinates
version=1
nRows=14
nColumns=24
inDegrees=yes

Units are S.I. units (second, meters, Newtons, ...)
Angles are in degrees.

endheader
time	pelvis_tilt	pelvis_list	pelvis_rotation	pelvis_tx	pelvis_ty	pelvis_tz	hip_flexion_r	hip_adduction_r	hip_rotation_r	knee_angle_r	ankle_angle_r	subtalar_angle_r	mtp_angle_r	hip_flexion_l	hip_adduction_l	hip_rotation_l	knee_angle_l	ankle_angle_l	subtalar_angle_l	mtp_angle_l	lumbar_extension	lumbar_bending	lumbar_rotation
      5.15000000	      8.24867241	      0.93940945	      2.84931847	      1.16121948	      0.87828252	     -0.23524433	    -35.37238480	      2.39567453	     -5.18749005	     -8.09392145	     15.14152537	      5.95713572	      0.00000000	     17.03832983	      5.29143593	      7.68173142	     -8.57050342	      3.91802867	    -14.28180721	      0.00000000	    -28.26044692	     -1.65425822	      5.17805237
      5.16000000	      8.11698250	      1.47810548	      2.96210107	      1.17985800	      0.87722602	     -0.23731353	    -34.84948692	      1.59130085	     -6.46695858	    -10.58289329	     13.20912153	      6.96635250	      0.00000000	     18.11043324	      6.07872884	      5.94046763	    -12.02957987	      3.95623186	    -12.74879339	      0.00000000	    -27.81466645	     -2.32310133	      4.97471476
      5.17000000	      8.05680055	      2.01273407	      3.03940467	      1.19829886	      0.87648751	     -0.23922235	    -34.17979398	      0.75206333	     -7.46213344	    -13.33041245	     10.81665356	      7.46667151	      0.00000000	     19.11551321	      6.73056740	      4.25142774	    -15.43417104	      4.44894845	    -11.10300995	      0.00000000	    -27.52255761	     -3.02659208	      4.86242772
      5.18000000	      8.11550850	      2.52508161	      3.09391266	      1.21648492	      0.87609473	     -0.24098550	    -33.39801562	     -0.08562841	     -8.15202835	    -16.34661188	      8.02343647	      7.58078694	      0.00000000	     19.96075378	      7.25401838	      2.68797990	    -18.77035620	      5.54688840	     -9.39479713	      0.00000000	    -27.43749398	     -3.72235497	      4.73067199
      5.19000000	      8.36216973	      3.01049895	      3.11309998	      1.23434179	      0.87610903	     -0.24259635	    -32.55221396	     -0.90708257	     -8.54285973	    -19.65631886	      4.98880465	      7.27210731	      0.00000000	     20.48965500	      7.66297467	      1.27106813	    -21.94962811	      7.19089444	     -7.67199211	      0.00000000	    -27.64829887	     -4.39147779	      4.64820012
      5.20000000	      8.69464562	      3.42345817	      3.11357796	      1.25184306	      0.87639569	     -0.24414210	    -31.50279414	     -1.67935790	     -8.72659511	    -23.29607653	      1.92219177	      6.74616067	      0.00000000	     20.72020808	      7.96768953	      0.11194498	    -24.85052444	      9.16847367	     -6.13997846	      0.00000000	    -28.00811749	     -4.95911206	      4.56477026
      5.21000000	      9.06123094	      3.79376513	      3.08197617	      1.26895935	      0.87693323	     -0.24565589	    -30.19334395	     -2.45072672	     -8.78219428	    -27.26575539	     -0.93360219	      6.15897030	      0.00000000	     20.60967204	      8.22738574	     -0.81468257	    -27.30633932	     11.28529907	     -4.85558701	      0.00000000	    -28.44770767	     -5.44998438	      4.45737521
      5.22000000	      9.38723708	      4.16029992	      2.98293381	      1.28568348	      0.87770380	     -0.24713020	    -28.56844874	     -3.28353918	     -8.73482413	    -31.51222058	     -3.35695304	      5.60545203	      0.00000000	     20.17839800	      8.49418272	     -1.57722731	    -29.19063923	     13.36516061	     -3.83884887	      0.00000000	    -28.86181323	     -5.91670289	      4.30790770
      5.23000000	      9.61531649	      4.54809659	      2.78719036	      1.30200962	      0.87870969	     -0.24853538	    -26.60443408	     -4.21402385	     -8.58246272	    -35.94313290	     -5.17472965	      5.14151284	      0.00000000	     19.48439051	      8.79298238	     -2.26025868	    -30.45659900	     15.28247741	     -3.04712642	      0.00000000	    -29.17118343	     -6.39806564	      4.13344852
      5.24000000	      9.70908620	      4.98022254	      2.46843168	      1.31798234	      0.87997168	     -0.24981326	    -24.31718946	     -5.24929771	     -8.27558405	    -40.42388126	     -6.27710261	      4.80052384	      0.00000000	     18.58991179	      9.14902101	     -2.91281131	    -31.10730946	     16.96432425	     -2.45133867	      0.00000000	    -29.31259918	     -6.94208074	      3.93699980
      5.25000000	      9.66960893	      5.43717004	      2.01521053	      1.33366059	      0.88153218	     -0.25091683	    -21.76124463	     -6.33511825	     -7.76563662	    -44.80012958	     -6.61690597	      4.59392402	      0.00000000	     17.54952297	      9.54027638	     -3.57398570	    -31.20789273	     18.38378084	     -2.01826805	      0.00000000	    -29.26168738	     -7.53543653	      3.73766699
      5.26000000	      9.52049256	      5.85933636	      1.45869340	      1.34906552	      0.88340161	     -0.25185333	    -19.00359281	     -7.36474547	     -7.06355107	    -48.93835664	     -6.21155451	      4.53809382	      0.00000000	     16.42680940	      9.91655834	     -4.21553673	    -30.89733192	     19.55294627	     -1.72122607	      0.00000000	    -29.03465484	     -8.10511286	      3.56845103
      5.27000000	      9.28826378	      6.19159298	      0.84337633	      1.36422096	      0.88561665	     -0.25261941	    -16.11243488	     -8.21380951	     -6.17334361	    -52.72561916	     -5.14868845	      4.65861818	      0.00000000	     15.24546287	     10.23516563	     -4.77446085	    -30.26449347	     20.46090153	     -1.56900212	      0.00000000	    -28.66282456	     -8.59021593	      3.41063157
      5.28000000	      8.97715682	      6.38455372	      0.25110151	      1.37913188	      0.88813195	     -0.25334565	    -13.13738622	     -8.80047139	     -5.20983672	    -56.09196737	     -3.54550967	      4.94057646	      0.00000000	     14.05352337	     10.47284046	     -5.13926164	    -29.41718470	     21.12809554	     -1.54614994	      0.00000000	    -28.15829828	     -8.89070146	      3.28191958
